<?xml version="1.0" encoding="UTF-8" standalone="no"?>
<svg
   xmlns:dc="http://purl.org/dc/elements/1.1/"
   xmlns:cc="http://creativecommons.org/ns#"
   xmlns:rdf="http://www.w3.org/1999/02/22-rdf-syntax-ns#"
   xmlns:svg="http://www.w3.org/2000/svg"
   xmlns="http://www.w3.org/2000/svg"
   viewBox="0 0 211.10667 195.02667"
   height="195.02667"
   width="211.10667"
   xml:space="preserve"
   id="svg2"
   version="1.1"><metadata
     id="metadata8"><rdf:RDF><cc:Work
         rdf:about=""><dc:format>image/svg+xml</dc:format><dc:type
           rdf:resource="http://purl.org/dc/dcmitype/StillImage" /></cc:Work></rdf:RDF></metadata><defs
     id="defs6" /><g
     transform="matrix(1.3333333,0,0,-1.3333333,0,195.02667)"
     id="g10"><g
       transform="scale(0.1)"
       id="g12"><path
         id="path14"
         style="fill:#d21c2d;fill-opacity:1;fill-rule:nonzero;stroke:none"
         d="M 24.4648,1222.39 H 277.938 V 0 H 24.4648 v 1222.39" /><path
         id="path16"
         style="fill:#d21c2d;fill-opacity:1;fill-rule:nonzero;stroke:none"
         d="m 15.6836,1389.63 c -0.7422,9.77 17.5195,36.78 34.168,36.78 17.0117,0 26.3515,-16.37 38.0312,-30.57 12.5002,-15.15 21.1872,-20.93 27.7302,-17.05 5.254,3.11 5.176,11.72 2.539,18.23 -3.261,8.04 -9.937,14.39 -6.054,24.94 3.593,9.74 15.547,16.09 29.465,18.22 13.273,2.03 37.316,0.66 51.945,4.78 24.656,6.96 30.996,20.94 42.5,13.6 6.305,-4.02 7.301,-11.93 4.129,-22.13 -2.559,-8.16 -6.711,-18.35 -15.696,-26.19 -6.406,-5.6 -15.82,-9.86 -25.73,-14.36 -12.297,-5.6 -21.797,-10.24 -19.641,-23.9 0.766,-4.73 8.008,-8.12 14.77,-7.38 9.234,1.05 20.055,4.27 29.898,4.76 15.508,0.75 38.028,-6.99 48.789,-12.25 10.743,-5.25 19.278,-13.02 35.782,-29.91 5.625,-5.76 23.046,-27.32 25.097,-29.38 7.442,-7.43 14.922,-14.12 19.395,-17.86 2.168,-1.79 1.758,-2.29 1.758,-2.29 0,0 -0.411,-0.09 -1.598,0.39 -1.996,0.81 -5.863,3 -12.719,7.53 -7.246,4.8 -38.941,31.9 -42.82,34.98 -6.008,4.77 -19.309,15.55 -26.887,8.76 -3.57,-3.19 -2.676,-10.51 -1.64,-13.77 1.132,-3.51 6.144,-10.75 9.003,-17.14 3.262,-7.24 3,-21.64 4.758,-28.15 1.758,-6.5 9.375,-21.11 3.379,-29.52 -3.996,-5.61 -13,-8.48 -20.89,-8.88 -6.172,-0.34 -12.657,1.12 -14.512,5.51 -5.039,11.94 9.59,14.46 4.707,25.11 -1.66,3.65 -7.305,2.92 -10.059,1.91 -4.804,-1.78 -9.004,-5.57 -13.047,-8.89 -2.117,-1.75 -12.246,-9.64 -21.257,-16.5 -7.668,-5.87 -18.293,-6.35 -21.895,-1.52 -8.367,11.26 13.699,18.12 18.77,22.03 13.527,10.44 24.57,24.96 13.906,38.84 -8,10.43 -21.914,8.47 -39.754,4.11 -19.777,-4.81 -42.719,-11 -55.957,-14.43 -14.953,-3.87 -32.9337,-6.47 -42.1681,-10.52 -7.8945,-3.43 -27.9023,-24.66 -29.4961,-26.34 -1.6015,-1.68 -11.8125,-11.72 -15.3906,-14.01 -6.1094,-3.9 -22.8281,-9.15 -26.5508,-0.66 -3.80077,8.65 9.8711,13.27 15.6367,17.77 5.3282,4.16 19.1367,16.86 19.1485,29.01 0,10.27 -8.2344,17.13 -12.1953,37.09 -3.1055,15.66 -0.0313,24.21 -2.2071,36.35 -2.5,14 -15.9883,18.03 -17.1406,32.9" /><path
         id="path18"
         style="fill:#d21c2d;fill-opacity:1;fill-rule:nonzero;stroke:none"
         d="m 357.41,1275.94 c 0,0 6.176,1.19 13.266,-0.78 6.715,-1.87 12.578,-4.49 11.582,-8.63 -0.942,-3.8 -8.735,-2.37 -12.387,-0.9 -9.433,3.77 -12.461,10.31 -12.461,10.31" /><path
         id="path20"
         style="fill:#d21c2d;fill-opacity:1;fill-rule:nonzero;stroke:none"
         d="M 366.883,1222.39 H 1583.29 V 0 H 366.883 v 1222.39" /><path
         id="path22"
         style="fill:#ffffff;fill-opacity:1;fill-rule:nonzero;stroke:none"
         d="M 232.348,171.07 H 220.699 V 154.898 H 156.68 v -15.046 h 75.668 z m -3.414,49.141 h -36.598 c -16.867,0 -22.563,-8.66 -22.563,-20.172 0,-9.238 2.622,-15.391 4.555,-18.918 l 9.684,3.07 c -1.711,3.297 -3.196,7.86 -3.196,12.989 0,5.371 2.739,8.789 8.555,8.789 h 2.055 c 2.164,-16.43 7.066,-28.039 22.804,-28.039 12.2,0 19.254,7.402 19.254,22.109 0,9.582 -1.707,15.731 -4.55,20.172 z m -6.493,-14.242 c 0.457,-1.141 1.028,-3.188 1.028,-5.25 0,-5.821 -3.535,-8.899 -9.809,-8.899 -8.894,0 -12.086,4.68 -13.34,14.149 h 22.121" /><path
         id="path24"
         style="fill:#ffffff;fill-opacity:1;fill-rule:nonzero;stroke:none"
         d="m 210.695,309.461 c -12.207,0 -17.789,-8.199 -19.609,-14.121 h -0.227 c -1.82,5.242 -6.609,12.07 -17.218,12.07 -12.543,0 -20.852,-9.219 -20.852,-25.41 0,-8.898 1.82,-15.84 4.555,-20.059 h 71.59 c 2.957,4.668 4.55,11.5 4.55,20.739 0,14.031 -6.031,26.781 -22.789,26.781 z m -35.797,-17.082 c 9.352,0 12.43,-4.109 12.43,-13.117 v -2.293 h -23.039 c -0.57,1.492 -0.801,3.543 -0.801,5.601 0,6.391 3.539,9.809 11.41,9.809 z m 34.883,1.48 c 8.328,0 12.891,-3.757 12.774,-11.41 0,-2.277 -0.34,-3.988 -0.91,-5.48 h -25.438 v 2.293 c 0,10.718 4.223,14.597 13.574,14.597 z m -56.886,44.789 c -4.442,0 -7.973,-3.648 -7.973,-8.089 0,-4.329 3.531,-7.86 7.973,-7.86 4.328,0 7.972,3.531 7.972,7.86 0,4.441 -3.644,8.089 -7.972,8.089 z m 79.453,-0.566 H 170.902 V 323.27 h 61.446 z m -27.696,59.277 c -21.668,1.141 -34.879,-6.39 -34.879,-21.89 0,-14.59 13.211,-23.02 31.688,-23.02 20.07,0 32.023,8.66 32.023,24.84 0,8.211 -1.82,14.25 -4.55,18.133 l -10.368,-3.313 c 1.481,-2.39 3.192,-6.609 3.192,-12.879 0,-7.3 -4.445,-11.171 -13.344,-12.082 z m -7.867,-14.48 2.051,-16.641 c -10.832,-0.117 -18.359,3.41 -18.359,8.891 0,5.473 5.929,7.75 16.308,7.75 z m 35.563,74.101 h -43.434 c -12.992,0 -19.141,-6.949 -19.141,-22 0,-9.351 1.825,-16.3 4.555,-21.191 h 58.02 V 428.48 H 181.73 c -0.796,1.602 -1.14,3.079 -1.14,6.161 0,5.25 2.965,7.418 8.324,7.418 h 43.434 z m 0,61.102 h -43.434 c -12.992,0 -19.141,-6.949 -19.141,-21.996 0,-9.352 1.825,-16.301 4.555,-21.195 h 58.02 v 14.691 H 181.73 c -0.796,1.598 -1.14,3.082 -1.14,6.16 0,5.25 2.965,7.422 8.324,7.422 h 43.434 z m -3.414,55.516 h -36.598 c -16.867,0 -22.563,-8.657 -22.563,-20.168 0,-9.242 2.622,-15.391 4.555,-18.922 l 9.684,3.074 c -1.711,3.305 -3.196,7.859 -3.196,12.992 0,5.364 2.739,8.789 8.555,8.789 h 2.055 c 2.164,-16.429 7.066,-28.043 22.804,-28.043 12.2,0 19.254,7.403 19.254,22.11 0,9.578 -1.707,15.726 -4.55,20.168 z m -6.493,-14.235 c 0.457,-1.14 1.028,-3.195 1.028,-5.25 0,-5.82 -3.535,-8.898 -9.809,-8.898 -8.894,0 -12.086,4.676 -13.34,14.148 z m 9.907,46.547 h -86.336 v -14.398 h 86.336 z m -27.696,58.934 c -21.668,1.14 -34.879,-6.383 -34.879,-21.887 0,-14.586 13.211,-23.016 31.688,-23.016 20.07,0 32.023,8.657 32.023,24.84 0,8.207 -1.82,14.25 -4.55,18.125 l -10.368,-3.304 c 1.481,-2.395 3.192,-6.614 3.192,-12.883 0,-7.297 -4.445,-11.172 -13.344,-12.086 z m -7.867,-14.477 2.051,-16.644 c -10.832,-0.114 -18.359,3.418 -18.359,8.89 0,5.473 5.929,7.754 16.308,7.754" /><path
         id="path26"
         style="fill:#ffffff;fill-opacity:1;fill-rule:nonzero;stroke:none"
         d="m 228.934,750.797 h -86.063 v -14.809 h 28.496 c -0.566,-1.48 -1.137,-3.535 -1.137,-7.187 0,-13 12.071,-22.11 31.797,-22.11 20.414,0 31.457,8.997 31.457,24.735 0,9.121 -1.707,14.812 -4.55,19.371 z m -7.289,-14.809 c 0.683,-1.14 0.683,-2.738 0.683,-4.105 0,-7.531 -7.98,-10.5 -21.098,-10.5 -11.515,0 -20.984,2.394 -20.984,10.953 0,1.371 0.231,2.625 0.457,3.652 z m -68.75,46.043 c -4.442,0 -7.973,-3.644 -7.973,-8.09 0,-4.324 3.531,-7.855 7.973,-7.855 4.328,0 7.972,3.531 7.972,7.855 0,4.446 -3.644,8.09 -7.972,8.09 z m 79.453,-0.57 h -61.446 v -14.809 h 61.446 v 14.809" /><path
         id="path28"
         style="fill:#ffffff;fill-opacity:1;fill-rule:nonzero;stroke:none"
         d="m 153.93,875.18 v -14.481 l 47.308,-9.117 c 4.559,-0.914 9.805,-1.484 9.805,-1.484 v -0.227 c 0,0 -5.246,-0.57 -9.805,-1.367 l -47.308,-8.781 v -15.957 l 78.418,18.808 v 13.793 z m 50.722,49.683 c -21.668,1.141 -34.879,-6.386 -34.879,-21.89 0,-14.586 13.211,-23.012 31.688,-23.012 20.07,0 32.023,8.656 32.023,24.836 0,8.211 -1.82,14.25 -4.55,18.129 l -10.368,-3.309 c 1.481,-2.394 3.192,-6.609 3.192,-12.883 0,-7.293 -4.445,-11.171 -13.344,-12.082 z m -7.867,-14.48 2.051,-16.645 c -10.832,-0.109 -18.359,3.422 -18.359,8.895 0,5.472 5.929,7.75 16.308,7.75 z m 35.563,74.101 h -43.434 c -12.992,0 -19.141,-6.949 -19.141,-21.996 0,-9.351 1.825,-16.3 4.555,-21.195 h 58.02 v 14.691 H 181.73 c -0.796,1.598 -1.14,3.082 -1.14,6.161 0,5.25 2.965,7.418 8.324,7.418 h 43.434 z m -27.696,61.216 c -21.668,1.14 -34.879,-6.38 -34.879,-21.89 0,-14.58 13.211,-23.01 31.688,-23.01 20.07,0 32.023,8.65 32.023,24.84 0,8.2 -1.82,14.25 -4.55,18.12 l -10.368,-3.3 c 1.481,-2.4 3.192,-6.62 3.192,-12.89 0,-7.29 -4.445,-11.17 -13.344,-12.08 z m -7.867,-14.48 2.051,-16.64 c -10.832,-0.12 -18.359,3.42 -18.359,8.89 0,5.47 5.929,7.75 16.308,7.75 z m 35.563,60.43 h -11.16 v -17.22 l -50.274,17.11 v -35 h 11.043 v 16.53 l 50.391,-17.9 z m -79.453,30.54 c -4.442,0 -7.973,-3.64 -7.973,-8.08 0,-4.33 3.531,-7.86 7.973,-7.86 4.328,0 7.972,3.53 7.972,7.86 0,4.44 -3.644,8.08 -7.972,8.08 z m 79.453,-0.56 h -61.446 v -14.81 h 61.446 z m -3.414,55.85 h -36.598 c -16.867,0 -22.563,-8.66 -22.563,-20.17 0,-9.24 2.622,-15.39 4.555,-18.92 l 9.684,3.07 c -1.711,3.31 -3.196,7.86 -3.196,13 0,5.36 2.739,8.79 8.555,8.79 h 2.055 c 2.164,-16.43 7.066,-28.05 22.804,-28.05 12.2,0 19.254,7.41 19.254,22.11 0,9.58 -1.707,15.73 -4.55,20.17 z m -6.493,-14.23 c 0.457,-1.14 1.028,-3.2 1.028,-5.25 0,-5.82 -3.535,-8.91 -9.809,-8.91 -8.894,0 -12.086,4.68 -13.34,14.16 h 22.121" /><path
         id="path30"
         style="fill:#ffffff;fill-opacity:1;fill-rule:nonzero;stroke:none"
         d="m 520.348,139.48 -26.18,96.301 H 476.945 L 450.348,139.48 h 16.66 l 5.039,20.442 h 23.66 l 5.039,-20.442 z m -27.301,33.301 h -18.059 l 6.578,27.578 c 1.403,6.02 2.52,12.461 2.52,12.461 h 0.281 c 0,0 1.121,-6.718 2.379,-12.461 z m 69.293,43.399 c -17.36,0.84 -27.012,-1.399 -33.863,-5.45 v -71.25 h 18.043 v 62.161 c 3.5,1.679 8.257,1.82 12.457,-0.282 z m 45.633,-72.508 -3.778,12.308 c -1.679,-1.679 -4.062,-2.8 -7.98,-2.8 -7.281,0 -11.762,9.242 -11.762,24.511 0,14.84 3.922,24.508 12.039,24.508 3.781,0 6.301,-1.398 7.703,-2.808 l 3.641,11.339 c -2.801,3.071 -7.563,5.59 -15.684,5.59 -14.269,0 -26.019,-13.281 -26.019,-38.91 0,-25.769 10.629,-39.332 26.019,-39.332 8.543,0 13.024,2.512 15.821,5.594 z m 63.281,-4.192 v 53.051 c 0,14.699 -7.832,23.649 -21.688,23.649 -5.046,0 -9.531,-1.258 -13.312,-3.5 v 36.679 H 618.211 V 139.48 h 18.043 v 61.598 c 2.519,1.402 4.902,1.961 7.848,1.961 5.464,0 8.828,-3.777 8.828,-10.508 V 139.48 Z m 34.156,97.571 c 0,5.449 -4.476,9.789 -9.93,9.789 -5.316,0 -9.652,-4.34 -9.652,-9.789 0,-5.321 4.336,-9.789 9.652,-9.789 5.454,0 9.93,4.468 9.93,9.789 z m -0.699,-97.571 v 75.45 h -18.184 v -75.45 z m 67.348,75.442 H 755.258 L 744.34,164.66 h -0.141 l -10.5,50.262 h -18.621 l 20.02,-75.442 h 17.222 z m 29.25,22.129 c 0,5.449 -4.477,9.789 -9.93,9.789 -5.316,0 -9.652,-4.34 -9.652,-9.789 0,-5.321 4.336,-9.789 9.652,-9.789 5.453,0 9.93,4.468 9.93,9.789 z m -0.7,-97.571 v 75.45 h -18.183 v -75.45 z m 68.598,37.77 c 0,22.422 -8.949,39.07 -27.57,39.07 -18.481,0 -27.571,-16.648 -27.571,-39.07 0,-22.43 9.09,-39.191 27.571,-39.191 18.621,0 27.57,16.761 27.57,39.191 z m -18.043,0.281 c 0,-13.601 -1.398,-24.812 -9.527,-24.812 -7.848,0 -9.391,11.211 -9.391,24.953 0,13.726 1.402,25.226 9.391,25.226 8.129,0 9.527,-11.636 9.527,-25.367 z m 110.024,-11.89 c 0,12.039 -5.875,19.187 -16.926,28.57 -8.969,7.559 -11.914,11.34 -11.914,17.777 0,6.453 4.207,10.231 10.093,10.231 5.457,0 9.793,-1.821 12.032,-3.641 l 3.496,13.012 c -3.918,3.351 -10.91,5.59 -18.75,5.59 -15.125,0 -25.754,-10.348 -25.754,-26.59 0,-10.5 4.754,-18.481 15.246,-27.442 9.105,-7.707 12.332,-11.769 12.332,-18.769 0,-5.738 -4.348,-10.078 -10.793,-10.078 -6.297,0 -11.191,2.66 -13.289,4.48 l -4.477,-15.109 c 4.336,-3.363 11.192,-5.594 21.407,-5.594 16.382,0 27.297,10.902 27.297,27.563 z m 42.412,-25.192 v 13.012 c -0.98,-0.281 -2.1,-0.699 -3.784,-0.699 -3.777,0 -6.16,2.379 -6.16,9.379 v 39.218 h 9.944 v 13.563 h -9.944 v 22.117 l -18.179,-5.738 v -16.379 h -6.723 v -13.563 h 6.723 V 160.18 c 0,-13.289 6.711,-21.68 19.019,-21.68 4.203,0 7.984,1.109 9.104,1.949 z m 63.41,36.801 c 0,22.422 -8.95,39.07 -27.57,39.07 -18.48,0 -27.57,-16.648 -27.57,-39.07 0,-22.43 9.09,-39.191 27.57,-39.191 18.62,0 27.57,16.761 27.57,39.191 z m -18.04,0.281 c 0,-13.601 -1.4,-24.812 -9.53,-24.812 -7.85,0 -9.39,11.211 -9.39,24.953 0,13.726 1.4,25.226 9.39,25.226 8.13,0 9.53,-11.636 9.53,-25.367 z m 65.08,38.649 c -17.36,0.84 -27.01,-1.399 -33.86,-5.45 v -71.25 h 18.04 v 62.161 c 3.5,1.679 8.26,1.82 12.46,-0.282 z m 27.72,20.871 c 0,5.449 -4.48,9.789 -9.93,9.789 -5.32,0 -9.65,-4.34 -9.65,-9.789 0,-5.321 4.33,-9.789 9.65,-9.789 5.45,0 9.93,4.468 9.93,9.789 z m -0.7,-97.571 v 75.45 h -18.18 v -75.45 z m 55.3,4.192 -3.78,12.308 c -1.68,-1.679 -4.06,-2.8 -7.98,-2.8 -7.28,0 -11.76,9.242 -11.76,24.511 0,14.84 3.92,24.508 12.04,24.508 3.78,0 6.3,-1.398 7.7,-2.808 l 3.64,11.339 c -2.8,3.071 -7.56,5.59 -15.68,5.59 -14.28,0 -26.03,-13.281 -26.03,-38.91 0,-25.769 10.63,-39.332 26.03,-39.332 8.54,0 13.02,2.512 15.82,5.594 z m 61.16,33.578 c 0,22.422 -8.95,39.07 -27.57,39.07 -18.48,0 -27.57,-16.648 -27.57,-39.07 0,-22.43 9.09,-39.191 27.57,-39.191 18.62,0 27.57,16.761 27.57,39.191 z m -18.04,0.281 c 0,-13.601 -1.4,-24.812 -9.53,-24.812 -7.85,0 -9.39,11.211 -9.39,24.953 0,13.726 1.4,25.226 9.39,25.226 8.13,0 9.53,-11.636 9.53,-25.367" /><path
         id="path32"
         style="fill:#ffffff;fill-opacity:1;fill-rule:nonzero;stroke:none"
         d="m 499.758,367.961 v 14.82 h -47.582 v -14.82 h 14.14 V 286.48 h 19.301 v 81.481 z m 56.133,-47.473 c 1.402,26.614 -7.84,42.832 -26.879,42.832 -17.914,0 -28.266,-16.218 -28.266,-38.91 0,-24.648 10.633,-39.328 30.504,-39.328 10.082,0 17.5,2.227 22.262,5.59 l -4.063,12.726 c -2.937,-1.816 -8.117,-3.918 -15.816,-3.918 -8.961,0 -13.723,5.461 -14.84,16.379 z m -17.782,9.66 -20.437,-2.519 c -0.141,13.301 4.199,22.551 10.918,22.551 6.723,0 9.519,-7.289 9.519,-20.032 z m 77.957,-39.476 v 44.937 c 0,20.723 -10.628,27.711 -24.769,27.711 -11.348,0 -18.899,-3.218 -23.234,-5.59 l 3.777,-11.898 c 4.055,2.109 9.648,3.93 15.957,3.93 6.586,0 10.789,-3.364 10.789,-10.512 v -2.52 c -20.176,-2.66 -34.441,-8.679 -34.441,-28.011 0,-14.981 9.089,-23.637 27.152,-23.637 11.766,0 19.316,2.09 24.769,5.59 z m -17.48,7.969 c -1.402,-0.559 -3.926,-1.262 -6.445,-1.262 -7.149,0 -10.934,4.34 -10.934,12.043 0,10.93 5.746,14.848 17.379,16.387 z m 62.84,-11.192 v 13.012 c -0.981,-0.281 -2.102,-0.699 -3.781,-0.699 -3.782,0 -6.161,2.379 -6.161,9.379 v 39.218 h 9.942 v 13.563 h -9.942 v 22.117 l -18.183,-5.738 v -16.379 h -6.719 v -13.563 h 6.719 V 307.18 c 0,-13.289 6.715,-21.68 19.023,-21.68 4.199,0 7.981,1.109 9.102,1.949 z m 45.219,75.731 c -17.36,0.84 -27.008,-1.399 -33.864,-5.45 v -71.25 h 18.043 v 62.161 c 3.5,1.679 8.262,1.82 12.461,-0.282 z m 58.937,-38.93 c 0,22.422 -8.953,39.07 -27.57,39.07 -18.481,0 -27.574,-16.648 -27.574,-39.07 0,-22.43 9.093,-39.191 27.574,-39.191 18.617,0 27.57,16.761 27.57,39.191 z m -18.043,0.281 c 0,-13.601 -1.402,-24.812 -9.527,-24.812 -7.848,0 -9.391,11.211 -9.391,24.953 0,13.726 1.402,25.226 9.391,25.226 8.125,0 9.527,-11.636 9.527,-25.367" /><path
         id="path34"
         style="fill:#ffffff;fill-opacity:1;fill-rule:nonzero;stroke:none"
         d="m 540.359,433.48 -8.531,96.297 H 514.195 L 499.77,476.02 c -1.403,-5.18 -2.383,-10.5 -2.383,-10.5 h -0.278 c 0,0 -0.98,5.46 -2.382,10.64 l -14.004,53.617 h -17.778 l -8.39,-96.297 h 16.785 l 3.64,54.86 c 0.282,4.758 0.282,10.64 0.282,10.64 h 0.277 c 0,0 1.121,-5.882 2.383,-10.781 l 14.285,-54.719 h 9.102 l 14.144,54.719 c 1.262,5.039 2.524,10.781 2.524,10.781 h 0.277 c 0,0 0,-5.742 0.281,-10.781 l 3.781,-54.719 z m 64.961,4.469 v 70.969 H 586.996 V 448.16 c -1.961,-1.121 -4.484,-1.82 -7.289,-1.82 -5.887,0 -8.828,3.781 -8.828,9.801 v 52.777 h -18.184 v -50.68 c 0,-18.886 9.653,-26.156 26.453,-26.156 11.903,0 20.715,2.367 26.172,5.867 z m 54.176,16.481 c 0,11.07 -5.594,16.535 -13.426,22.422 -6.718,4.906 -10.234,7.851 -10.234,12.757 0,3.782 2.812,7.149 7.297,7.149 4.613,0 8.109,-1.965 9.93,-3.645 l 4.335,11.614 c -4.335,3.496 -10.351,5.593 -18.468,5.593 -12.606,0 -21.137,-9.09 -21.137,-21.972 0,-9.953 6.297,-16.539 13.43,-21.868 6.722,-5.05 9.113,-7.289 9.113,-12.75 0,-4.21 -3.094,-7.011 -7.856,-7.011 -4.894,0 -9.371,2.242 -11.468,4.203 l -4.477,-13.281 c 4.336,-3.762 10.211,-5.582 18.742,-5.582 14.008,0 24.219,9.492 24.219,22.371 z m 30.942,76.617 c 0,5.457 -4.477,9.793 -9.934,9.793 -5.313,0 -9.649,-4.336 -9.649,-9.793 0,-5.317 4.336,-9.789 9.649,-9.789 5.457,0 9.934,4.472 9.934,9.789 z m -0.704,-97.567 v 75.454 H 671.555 V 433.48 Z m 55.301,4.192 -3.781,12.308 c -1.68,-1.679 -4.059,-2.8 -7.981,-2.8 -7.277,0 -11.757,9.242 -11.757,24.508 0,14.843 3.918,24.507 12.039,24.507 3.781,0 6.3,-1.398 7.699,-2.8 l 3.641,11.332 c -2.801,3.074 -7.559,5.593 -15.68,5.593 -14.274,0 -26.024,-13.285 -26.024,-38.914 0,-25.765 10.629,-39.324 26.024,-39.324 8.539,0 13.019,2.508 15.82,5.59 z m 57.953,0 v 44.937 c 0,20.719 -10.629,27.711 -24.769,27.711 -11.348,0 -18.903,-3.218 -23.239,-5.593 l 3.778,-11.891 c 4.055,2.102 9.652,3.922 15.957,3.922 6.586,0 10.793,-3.363 10.793,-10.504 v -2.524 c -20.176,-2.66 -34.442,-8.679 -34.442,-28.011 0,-14.981 9.09,-23.637 27.153,-23.637 11.761,0 19.316,2.09 24.769,5.59 z m -17.48,7.969 c -1.403,-0.563 -3.926,-1.262 -6.449,-1.262 -7.149,0 -10.93,4.34 -10.93,12.043 0,10.926 5.746,14.848 17.379,16.387 v -27.168" /><path
         id="path36"
         style="fill:#ffffff;fill-opacity:1;fill-rule:nonzero;stroke:none"
         d="m 518.379,628.906 c 0,28.149 -10.211,49.274 -36.676,49.274 -9.941,0 -18.051,-2.379 -23.508,-5.594 v -87.914 c 5.035,-3.496 13.707,-5.598 24.489,-5.598 26.324,0 35.695,22.387 35.695,49.832 z m -19.305,0.563 c 0,-25.067 -4.621,-35.149 -16.39,-35.149 -2.383,0 -4.485,0.418 -5.606,0.84 v 67.637 c 1.262,0.558 3.082,0.98 5.324,0.98 11.911,0 16.672,-10.785 16.672,-34.308 z m 80.481,-44.801 v 44.945 c 0,20.715 -10.629,27.707 -24.77,27.707 -11.347,0 -18.898,-3.218 -23.234,-5.593 l 3.773,-11.891 c 4.059,2.102 9.653,3.922 15.957,3.922 6.586,0 10.793,-3.363 10.793,-10.504 v -2.524 c -20.176,-2.66 -34.441,-8.679 -34.441,-28.007 0,-14.981 9.09,-23.649 27.152,-23.649 11.766,0 19.317,2.098 24.77,5.594 z m -17.481,7.973 c -1.402,-0.563 -3.926,-1.262 -6.445,-1.262 -7.149,0 -10.934,4.34 -10.934,12.043 0,10.926 5.746,14.848 17.379,16.387 z m 85.52,-12.164 v 53.336 c 0,15.957 -8.531,23.507 -27.012,23.507 -11.484,0 -20.016,-2.238 -26.031,-5.593 v -71.25 h 18.043 v 62.16 c 1.961,0.98 3.785,1.398 7.566,1.398 6.449,0 9.11,-3.64 9.11,-10.222 v -53.336 z m 55.449,0 v 13.703 h -21.141 l 21,61.738 h -42.98 v -13.563 h 20.301 l -21.981,-61.878 z m 58.93,4.191 v 44.945 c 0,20.715 -10.633,27.707 -24.774,27.707 -11.347,0 -18.898,-3.218 -23.234,-5.593 l 3.773,-11.891 c 4.059,2.102 9.653,3.922 15.957,3.922 6.59,0 10.793,-3.363 10.793,-10.504 v -2.524 c -20.175,-2.66 -34.441,-8.679 -34.441,-28.007 0,-14.981 9.094,-23.649 27.152,-23.649 11.766,0 19.317,2.098 24.774,5.594 z m -17.485,7.973 c -1.402,-0.563 -3.925,-1.262 -6.445,-1.262 -7.148,0 -10.934,4.34 -10.934,12.043 0,10.926 5.746,14.848 17.379,16.387 v -27.168" /><path
         id="path38"
         style="fill:#ffffff;fill-opacity:1;fill-rule:nonzero;stroke:none"
         d="m 505.777,731.672 -3.918,13.707 c -2.101,-1.539 -4.898,-2.801 -9.941,-2.801 -12.039,0 -16.52,17.227 -16.52,33.051 0,16.242 3.641,34.027 16.661,34.027 4.761,0 7.839,-1.261 9.8,-2.801 l 3.782,12.731 c -3.922,3.496 -9.661,5.594 -17.641,5.594 -21.832,0 -32.184,-23.926 -32.184,-49.551 0,-26.469 9.93,-49.555 31.762,-49.555 8.68,0 14.563,2.102 18.199,5.598 z m 29.399,93.375 c 0,5.457 -4.477,9.793 -9.93,9.793 -5.316,0 -9.652,-4.336 -9.652,-9.793 0,-5.317 4.336,-9.789 9.652,-9.789 5.453,0 9.93,4.472 9.93,9.789 z m -0.699,-97.57 v 75.457 h -18.18 v -75.457 z m 68.461,0 v 53.336 c 0,15.957 -8.536,23.507 -27.012,23.507 -11.488,0 -20.02,-2.238 -26.031,-5.593 v -71.25 h 18.043 v 62.16 c 1.96,0.98 3.781,1.398 7.566,1.398 6.445,0 9.109,-3.64 9.109,-10.222 v -53.336 z m 68.175,34.007 c 1.403,26.61 -7.84,42.836 -26.879,42.836 -17.914,0 -28.261,-16.226 -28.261,-38.914 0,-24.648 10.629,-39.332 30.504,-39.332 10.078,0 17.5,2.239 22.257,5.594 l -4.058,12.73 c -2.942,-1.82 -8.121,-3.918 -15.821,-3.918 -8.96,0 -13.718,5.461 -14.839,16.383 z m -17.777,9.664 -20.441,-2.519 c -0.137,13.305 4.199,22.547 10.921,22.547 6.719,0 9.52,-7.281 9.52,-20.028 z m 118.719,-43.671 v 53.336 c 0,14.976 -8.813,23.507 -21.547,23.507 -9.949,0 -15.973,-2.937 -20.309,-7.273 -3.355,4.055 -9.371,7.273 -20.297,7.273 -12.183,0 -19.734,-2.238 -25.609,-5.593 v -71.25 h 18.043 v 62.3 c 2.102,0.84 3.922,1.399 7.426,1.399 6.168,0 9.25,-4.34 9.25,-10.504 v -53.195 h 18.324 v 60.339 c 2.102,2.239 4.625,3.36 7.988,3.36 5.606,0 8.547,-4.063 8.547,-10.363 v -53.336 z m 64.117,4.191 v 44.945 c 0,20.715 -10.629,27.707 -24.77,27.707 -11.347,0 -18.898,-3.218 -23.238,-5.593 l 3.777,-11.891 c 4.055,2.102 9.653,3.922 15.957,3.922 6.586,0 10.793,-3.363 10.793,-10.504 v -2.524 c -20.175,-2.66 -34.441,-8.679 -34.441,-28.007 0,-14.981 9.09,-23.649 27.152,-23.649 11.762,0 19.317,2.098 24.77,5.594 z m -17.481,7.973 c -1.402,-0.563 -3.925,-1.262 -6.449,-1.262 -7.144,0 -10.929,4.34 -10.929,12.043 0,10.926 5.746,14.848 17.378,16.387 v -27.168" /><path
         id="path40"
         style="fill:#ffffff;fill-opacity:1;fill-rule:nonzero;stroke:none"
         d="m 520.348,874.477 -26.18,96.3 h -17.223 l -26.597,-96.3 h 16.66 l 5.039,20.441 h 23.66 l 5.039,-20.441 z m -27.301,33.3 h -18.059 l 6.578,27.582 c 1.403,6.02 2.52,12.461 2.52,12.461 h 0.281 c 0,0 1.121,-6.722 2.379,-12.461 z m 69.293,43.403 c -17.36,0.84 -27.012,-1.399 -33.863,-5.453 v -71.25 h 18.043 v 62.16 c 3.5,1.679 8.257,1.82 12.457,-0.282 z m 45.633,-72.508 -3.778,12.308 c -1.679,-1.679 -4.062,-2.8 -7.98,-2.8 -7.281,0 -11.762,9.242 -11.762,24.508 0,14.843 3.922,24.507 12.039,24.507 3.781,0 6.301,-1.398 7.703,-2.8 l 3.641,11.332 c -2.801,3.074 -7.563,5.593 -15.684,5.593 -14.269,0 -26.019,-13.285 -26.019,-38.914 0,-25.765 10.629,-39.332 26.019,-39.332 8.543,0 13.024,2.52 15.821,5.598 z m 63.281,-4.195 v 53.054 c 0,14.699 -7.832,23.649 -21.688,23.649 -5.046,0 -9.531,-1.258 -13.312,-3.496 v 36.675 H 618.211 V 874.477 h 18.043 v 61.597 c 2.519,1.403 4.902,1.961 7.848,1.961 5.464,0 8.828,-3.781 8.828,-10.504 v -53.054 z m 34.156,97.57 c 0,5.457 -4.476,9.793 -9.93,9.793 -5.316,0 -9.652,-4.336 -9.652,-9.793 0,-5.317 4.336,-9.789 9.652,-9.789 5.454,0 9.93,4.472 9.93,9.789 z m -0.699,-97.57 v 75.457 h -18.184 v -75.457 z m 47.18,0.976 v 13.008 c -0.981,-0.281 -2.102,-0.703 -3.782,-0.703 -3.781,0 -6.16,2.383 -6.16,9.383 v 39.214 h 9.942 v 13.563 h -9.942 v 22.121 l -18.183,-5.738 v -16.383 h -6.719 v -13.563 h 6.719 V 895.18 c 0,-13.293 6.714,-21.684 19.023,-21.684 4.199,0 7.981,1.117 9.102,1.957 z m 63.41,33.031 c 1.402,26.61 -7.84,42.836 -26.879,42.836 -17.914,0 -28.262,-16.226 -28.262,-38.914 0,-24.648 10.629,-39.332 30.5,-39.332 10.082,0 17.5,2.239 22.262,5.594 l -4.059,12.73 c -2.941,-1.82 -8.121,-3.918 -15.82,-3.918 -8.961,0 -13.723,5.461 -14.84,16.383 z m -17.778,9.664 -20.441,-2.519 c -0.141,13.305 4.199,22.547 10.922,22.547 6.719,0 9.519,-7.281 9.519,-20.028 z m 61.59,-42.695 v 13.008 c -0.98,-0.281 -2.097,-0.703 -3.777,-0.703 -3.781,0 -6.16,2.383 -6.16,9.383 v 39.214 h 9.937 v 13.563 h -9.937 v 22.121 l -18.184,-5.738 v -16.383 h -6.722 v -13.563 h 6.722 V 895.18 c 0,-13.293 6.711,-21.684 19.024,-21.684 4.199,0 7.976,1.117 9.097,1.957 z m 41.719,0 v 13.008 c -0.98,-0.281 -2.102,-0.703 -3.781,-0.703 -3.778,0 -6.16,2.383 -6.16,9.383 v 39.214 h 9.941 v 13.563 h -9.941 v 22.121 l -18.18,-5.738 v -16.383 h -6.723 v -13.563 h 6.723 V 895.18 c 0,-13.293 6.711,-21.684 19.019,-21.684 4.204,0 7.981,1.117 9.102,1.957 z m 63.981,3.496 v 70.969 H 946.488 V 889.16 c -1.961,-1.121 -4.484,-1.82 -7.285,-1.82 -5.887,0 -8.832,3.777 -8.832,9.801 v 52.777 h -18.183 v -50.68 c 0,-18.89 9.652,-26.164 26.453,-26.164 11.906,0 20.714,2.379 26.172,5.875 z m 48.857,72.231 c -17.357,0.84 -27.01,-1.399 -33.861,-5.453 v -71.25 h 18.043 v 62.16 c 3.498,1.679 8.258,1.82 12.458,-0.282 z m 54.43,-72.512 v 44.941 c 0,20.719 -10.63,27.711 -24.77,27.711 -11.35,0 -18.9,-3.218 -23.24,-5.593 l 3.78,-11.891 c 4.05,2.102 9.65,3.922 15.96,3.922 6.58,0 10.79,-3.363 10.79,-10.504 v -2.524 c -20.18,-2.66 -34.44,-8.679 -34.44,-28.007 0,-14.981 9.09,-23.649 27.15,-23.649 11.76,0 19.31,2.098 24.77,5.594 z m -17.48,7.973 c -1.41,-0.563 -3.93,-1.262 -6.45,-1.262 -7.15,0 -10.93,4.34 -10.93,12.043 0,10.926 5.74,14.848 17.38,16.387 v -27.168" /><path
         id="path42"
         style="fill:#ffffff;fill-opacity:1;fill-rule:nonzero;stroke:none"
         d="m 520.348,1021.48 -26.18,96.3 h -17.223 l -26.597,-96.3 h 16.66 l 5.039,20.44 h 23.66 l 5.039,-20.44 z m -27.301,33.3 h -18.059 l 6.578,27.58 c 1.403,6.02 2.52,12.46 2.52,12.46 h 0.281 c 0,0 1.121,-6.72 2.379,-12.46 z m 69.293,43.4 c -17.36,0.84 -27.012,-1.4 -33.863,-5.45 v -71.25 h 18.043 v 62.16 c 3.5,1.68 8.257,1.82 12.457,-0.28 z m 40.316,-75.73 v 13.01 c -0.98,-0.28 -2.097,-0.7 -3.777,-0.7 -3.781,0 -6.16,2.38 -6.16,9.38 v 39.22 h 9.937 v 13.56 h -9.937 v 22.12 l -18.184,-5.74 v -16.38 h -6.719 v -13.56 h 6.719 v -41.18 c 0,-13.29 6.715,-21.68 19.024,-21.68 4.199,0 7.976,1.11 9.097,1.95 z m 63.414,33.03 c 1.399,26.61 -7.84,42.84 -26.882,42.84 -17.911,0 -28.262,-16.23 -28.262,-38.91 0,-24.65 10.629,-39.34 30.504,-39.34 10.078,0 17.5,2.24 22.258,5.6 l -4.059,12.73 c -2.941,-1.82 -8.121,-3.92 -15.82,-3.92 -8.961,0 -13.719,5.46 -14.84,16.38 z m -17.781,9.67 -20.437,-2.52 c -0.141,13.3 4.199,22.55 10.918,22.55 6.718,0 9.519,-7.29 9.519,-20.03" /></g></g></svg>